<?xml version="1.0" standalone="no"?><!DOCTYPE svg PUBLIC "-//W3C//DTD SVG 1.1//EN" "http://www.w3.org/Graphics/SVG/1.1/DTD/svg11.dtd"><svg t="1747670558954" class="icon" viewBox="0 0 1024 1024" version="1.1" xmlns="http://www.w3.org/2000/svg" p-id="1157" width="256" height="256" xmlns:xlink="http://www.w3.org/1999/xlink"><path d="M898.4064 431.0016c-10.24-55.04-41.6256-102.4-89.856-136.3456 0-0.3072 0.3584-0.5632 0.512-0.9216a15.36 15.36 0 0 0-2.2528-17.2544 190.72 190.72 0 0 0-163.84-63.488c18.3296-16.64 32.0512-27.6992 32.256-27.904a15.36 15.36 0 0 0-7.936-27.2384c-2.9184-0.3072-65.9968-6.656-116.0704 27.136-0.8192-1.6896-1.6896-3.3792-2.56-5.12-24.8832-48.0768-82.7904-104.0384-145.3056-117.76a15.36 15.36 0 0 0-14.8992 4.864A398.4896 398.4896 0 0 1 343.04 112.64a15.36 15.36 0 0 0 12.2368 27.2384c3.072-0.5632 66.56-10.7008 109.6192 71.68-34.304-9.216-81.5104-13.9264-142.336-2.0992a15.36 15.36 0 0 0-10.6496 22.272c8.6016 16.2304 25.088 31.0272 40.96 42.3936-73.7792 16.0768-174.08 64.2048-199.2704 205.9776C134.3488 587.0592 183.7568 711.68 285.5936 814.08c87.8592 88.1152 197.4784 140.288 289.792 140.288a223.0272 223.0272 0 0 0 38.2976-3.2256c106.752-18.7904 181.8112-144.1792 217.0368-217.2416a15.36 15.36 0 0 0-27.648-13.3632c-55.6544 115.3536-126.6176 188.3648-194.56 200.3456-89.344 15.7184-207.4624-34.7136-301.0048-128.4608-94.7712-95.0272-141.0048-209.92-123.648-306.7904 14.6432-83.0976 57.6512-130.4064 106.8032-156.928a189.952 189.952 0 0 0-30.4128 55.8592 15.36 15.36 0 0 0 15.36 20.48 433.7664 433.7664 0 0 0 117.6064-24.2176c-14.336 49.6128-9.728 90.7264 14.2848 127.2832a15.36 15.36 0 0 0 11.1104 6.8608h1.7408a15.36 15.36 0 0 0 10.5984-4.2496l12.3904-11.776c49.5616-47.0528 80.9472-78.592 96.4608-101.376C578.1504 437.76 640 460.0832 716.8 461.056a15.36 15.36 0 0 0 14.2848-20.736c-17.5104-45.0048-50.2784-95.6416-69.0688-122.88 29.3376-5.12 70.8096-11.6736 100.864-14.336 57.4976 29.6448 94.8224 76.8 105.3184 133.6832 7.9872 43.3152-3.3792 120.0128-28.9792 195.3792a15.36 15.36 0 0 0 9.6256 19.5072 15.0016 15.0016 0 0 0 5.12 0.8192 15.36 15.36 0 0 0 14.5408-10.24c27.4944-81.6128 38.912-162.4064 29.9008-211.2512z m-276.0192-240.64c-12.7488 11.5712-27.648 25.6-42.0864 40.96a15.36 15.36 0 0 0-4.1472 11.264c-1.8944-4.352-3.7888-9.1648-5.632-13.8752s-3.8912-9.7792-6.144-15.36a132.3008 132.3008 0 0 1 58.0096-22.9888zM389.12 111.6672c5.12-5.12 10.24-10.8544 16.4352-17.5616 49.664 14.8992 96.256 61.44 116.1728 99.8912a489.1136 489.1136 0 0 1 20.48 46.08c6.3488 16.0256 11.52 29.0816 19.3024 37.9904-11.4176 10.5984-40.0896 10.7008-50.0224 9.9328a85.504 85.504 0 0 0 1.1776-39.7824 12.1344 12.1344 0 0 0-0.4608-1.8432C481.28 148.7872 426.4448 119.7056 389.12 111.6672z m234.1888 203.9296c0.4608 0.6656 43.4688 58.6752 69.6832 113.664-66.56-5.12-117.2992-29.5424-143.9744-69.1712a15.36 15.36 0 0 0-17.2544-6.2464 15.0528 15.0528 0 0 0-10.9568 14.7968c-2.2528 16.5376-64.5632 75.9296-96.5632 106.2912-14.0288-32.768-10.24-71.68 11.4176-120.2176a15.36 15.36 0 0 0-23.7568-18.1248c-18.4832 15.36-64.3072 29.184-112.64 35.4304 34.304-65.536 95.488-73.3184 98.304-73.6256a15.36 15.36 0 0 0 5.12-28.928A242.5344 242.5344 0 0 1 353.7408 235.52c58.624-7.2192 100.4032 2.816 126.9248 13.9776 0.5632 1.6896 1.1264 3.2768 1.6896 5.12 2.3552 14.0288 0.9216 24.9856-4.3008 32.6144a15.36 15.36 0 0 0 0 17.664c8.8064 12.1344 24.7808 13.568 29.6448 13.6704a126.8224 126.8224 0 0 0 12.9024 0.6144c29.0816 0 67.6352-8.7552 74.8544-41.984a15.36 15.36 0 0 0-9.0112-17.4592 14.0288 14.0288 0 0 1-5.12-6.2464 15.36 15.36 0 0 0 15.9232 2.7136c63.5904-26.0608 119.808-11.264 159.1296 16.5376-48.384 4.5056-114.2272 16.8448-123.8016 18.6368a15.36 15.36 0 0 0-9.472 24.2688z" fill="#E6E0E9" p-id="1158"></path><path d="M811.9296 512a13.7728 13.7728 0 0 0 4.0448 0.5632 15.36 15.36 0 0 0 14.7968-11.3152 104.704 104.704 0 0 0 2.8672-36.1472 15.36 15.36 0 0 0-30.72 3.584 74.4448 74.4448 0 0 1-1.9968 24.4736 15.36 15.36 0 0 0 11.008 18.8416zM723.0976 582.8608a15.36 15.36 0 0 0 7.8336-18.176c-0.512-3.5328-1.1264-15.36-1.4336-25.2416a15.36 15.36 0 0 0-30.72 0.9728c0.9216 29.952 2.304 32.6656 3.6864 35.5328a15.36 15.36 0 0 0 13.7728 8.5504 15.7184 15.7184 0 0 0 6.8608-1.6384zM760.6784 663.7056a99.584 99.584 0 0 1-5.12 19.7632 15.36 15.36 0 1 0 23.7568 19.456c6.5024-7.936 10.24-24.6784 11.776-33.9456a15.36 15.36 0 1 0-30.2592-5.12zM622.2336 653.1584a15.36 15.36 0 0 0 14.5408-10.24 244.5312 244.5312 0 0 0 6.2464-29.6448 15.36 15.36 0 0 0-30.3616-4.7104 223.6928 223.6928 0 0 1-5.12 24.5248 15.36 15.36 0 0 0 9.6768 19.5072 16.128 16.128 0 0 0 5.0176 0.5632zM507.4432 486.8096a15.36 15.36 0 0 0-18.3296 11.6224c-6.5024 28.7232-2.56 35.2768 2.4064 39.9872a15.36 15.36 0 0 0 10.5472 4.1472 15.36 15.36 0 0 0 11.1616-4.8128 15.36 15.36 0 0 0 3.2256-15.9232 125.3888 125.3888 0 0 1 2.6112-16.64 15.36 15.36 0 0 0-11.6224-18.3808zM318.3616 539.4432c0-2.4576 0.8192-12.4928 1.7408-20.48a15.36 15.36 0 0 0-30.72-3.584 240.2816 240.2816 0 0 0-1.9456 25.2928 15.36 15.36 0 0 0 15.36 14.6432h0.6656a15.36 15.36 0 0 0 14.8992-15.872zM269.7216 612.9152a15.36 15.36 0 0 0-6.144 20.8384c3.6864 6.7584 13.0048 23.1424 20.1216 29.3376a15.36 15.36 0 1 0 20.48-23.0912 136.2432 136.2432 0 0 1-13.4144-20.9408 15.36 15.36 0 0 0-21.0432-6.144zM438.9888 635.9552a15.36 15.36 0 0 0-14.6432 16.0256c1.2288 27.9552 1.6896 29.8496 2.048 31.4368a15.36 15.36 0 0 0 14.9504 11.6736 15.7696 15.7696 0 0 0 3.6864-0.4608 15.36 15.36 0 0 0 11.4176-17.5616c-0.3072-2.7648-0.9728-15.6672-1.4336-26.4192a15.36 15.36 0 0 0-16.0256-14.6944zM489.2672 789.76a14.6944 14.6944 0 0 0 6.5024 1.4848 15.36 15.36 0 0 0 9.8304-27.1872 128.4096 128.4096 0 0 1-7.9872-20.48 15.36 15.36 0 0 0-29.3888 9.0624c9.7792 31.8976 17.1008 35.328 21.0432 37.12zM695.3984 766.8224a15.36 15.36 0 0 0-18.2784 11.7248 57.9584 57.9584 0 0 1-4.5568 13.4656 15.36 15.36 0 0 0 24.1152 19.0464 74.5984 74.5984 0 0 0 10.24-25.9584 15.36 15.36 0 0 0-11.52-18.2784zM599.7568 840.6016a15.36 15.36 0 0 0-29.7472 7.68c8.1408 31.488 13.7216 38.0928 22.528 40.192a15.0528 15.0528 0 0 0 3.6352 0.4608 15.36 15.36 0 0 0 10.5984-26.4704 171.8784 171.8784 0 0 1-7.0144-21.8624zM357.376 735.9488a15.36 15.36 0 0 0-16.0768 14.6432c-0.3072 6.7584 0 29.5936 14.4384 39.5776a14.848 14.848 0 0 0 8.6528 2.6624 15.36 15.36 0 0 0 9.3696-27.4432 35.84 35.84 0 0 1-1.8944-13.4144 15.36 15.36 0 0 0-14.4896-16.0256zM611.2768 713.7792a15.36 15.36 0 0 0-30.72 1.2288c0.512 11.8272 0.9728 25.1904 0.9728 27.648a15.36 15.36 0 0 0 14.1312 15.9744h1.2288a15.36 15.36 0 0 0 15.36-14.1312c0-0.9728 0.1536-2.816-0.9728-30.72zM495.2064 879.7696H496.64a15.36 15.36 0 0 0 8.448-28.2112 95.1296 95.1296 0 0 1-5.9392-10.9568 15.36 15.36 0 0 0-28.1088 13.0048c9.7792 20.9408 16.4864 25.5488 24.1664 26.1632z" fill="#E6E0E9" p-id="1159"></path></svg>